<svg xmlns="http://www.w3.org/2000/svg" width="160" height="160" fill="none"><rect width="100%" height="100%"/><g class="currentLayer"><path fill-rule="evenodd" clip-rule="evenodd" d="M34.174 14.555a79.988 79.988 0 0 0-15.327 13.93c18.283-1.689 41.511 1.069 68.479 14.485 28.798 14.325 51.987 14.81 68.126 11.712a78.62 78.62 0 0 0-5.492-12.68c-18.475 1.938-42.159-.628-69.76-14.359-17.528-8.72-32.978-12.311-46.026-13.088zm104.994 12.163C124.578 10.5 103.377.294 79.778.294a80.2 80.2 0 0 0-20.063 2.534c8.681 2.357 17.904 5.805 27.61 10.634 20.21 10.053 37.656 13.29 51.843 13.256zm19.734 43.448c-19.497 3.83-46.42 3.044-78.703-13.015C50.02 42.137 26 42.326 9.798 45.908c-.836.185-1.653.379-2.45.581A78.414 78.414 0 0 0 2.32 60.917a98.38 98.38 0 0 1 4.022-.98c19.654-4.345 47.423-4.156 80.985 12.54 30.18 15.014 54.201 14.825 70.402 11.243.555-.123 1.102-.25 1.64-.38a80.041 80.041 0 0 0-.466-13.174zm-2.136 29.903c-19.308 3.359-45.447 2.07-76.567-13.41C50.02 71.643 26 71.832 9.798 75.414A79.759 79.759 0 0 0 .113 78.2c-.008.454-.012.91-.012 1.367 0 43.782 35.673 79.274 79.678 79.274 36.879 0 67.906-24.928 76.987-58.773z" class="ccustom" fill="red" stop-color="red"/></g></svg>